# xmcd CD database file
#
# Track frame offsets:
#	150
#	2839
#	32714
#	62385
#	92714
#	109151
#	140020
#	172505
#	198997
#	221153
#	242106
#	267682
#	289965
#	314579
#	317483
#
# Disc length: 4645 seconds
#
# Revision: 0
# Processed by: cddbd v1.5.2PL0 Copyright (c) Steve Scherf et al.
# Submitted via: CDex 1.51
#
DISCID=dc12230f
DTITLE=Gerry Mulligan - Jazz at the Concertgebouw
DYEAR=2008
DGENRE=Jazz
TTITLE0=Introduction by Gerry Mulligan
TTITLE1=Mud Bug
TTITLE2=Nights at the Turntable - Ontet
TTITLE3=Ain't It The Truth
TTITLE4=Line For Lyons
TTITLE5=Demanton - Utter Chaos
TTITLE6=Broadway
TTITLE7=Sweet And Lovely
TTITLE8=The Red Door
TTITLE9=I May Be Wrong (But I Think You're Wonderful)
TTITLE10=My Funny Valentine
TTITLE11=Westwood Walk
TTITLE12=I'm Begininning To See The Light
TTITLE13=Stars And Stripes Forever
TTITLE14=Western Reunion
EXTD=YEAR: 2008
EXTT0=
EXTT1=
EXTT2=
EXTT3=
EXTT4=
EXTT5=
EXTT6=
EXTT7=
EXTT8=
EXTT9=
EXTT10=
EXTT11=
EXTT12=
EXTT13=
EXTT14=
PLAYORDER=
